<svg width="120" height="120" viewBox="0 0 120 120" fill="none" xmlns="http://www.w3.org/2000/svg">
<path d="M60 110C87.6142 110 110 87.6142 110 60C110 32.3858 87.6142 10 60 10C32.3858 10 10 32.3858 10 60C10 87.6142 32.3858 110 60 110Z" fill="#F9FAFB"/>
<g filter="url(#filter0_f_1_117)">
<path d="M35 50C35 40 43.3333 35 60 35C76.6667 35 85 40 85 50H80C80 43.3333 73.3333 40 60 40C46.6667 40 40 43.3333 40 50H35Z" fill="url(#paint0_linear_1_117)"/>
<path opacity="0.3" d="M60 35V50" stroke="#10B981" stroke-width="2"/>
<path opacity="0.2" d="M60 35L45 48" stroke="#10B981" stroke-width="1.5"/>
<path opacity="0.2" d="M60 35L75 48" stroke="#10B981" stroke-width="1.5"/>
<path d="M62 50C62 48.8954 61.1046 48 60 48C58.8954 48 58 48.8954 58 50V81C58 82.1046 58.8954 83 60 83C61.1046 83 62 82.1046 62 81V50Z" fill="url(#paint1_linear_1_117)"/>
<path d="M62 83C62 86.3333 63.6667 88 67 88C70.3333 88 72 86.3333 72 83" stroke="url(#paint2_linear_1_117)" stroke-width="4" stroke-linecap="round"/>
</g>
<g opacity="0.6" filter="url(#filter1_f_1_117)">
<path d="M60 68C63.3137 68 66 65.3137 66 62C66 58.6863 63.3137 56 60 56C56.6863 56 54 58.6863 54 62C54 65.3137 56.6863 68 60 68Z" fill="#E5E7EB"/>
<path d="M56 78L60 68L64 78M54 72H60H66" stroke="#E5E7EB" stroke-width="3" stroke-linecap="round" stroke-linejoin="round"/>
</g>
<path opacity="0.12" d="M50 57C58.2843 57 65 50.2843 65 42C65 33.7157 58.2843 27 50 27C41.7157 27 35 33.7157 35 42C35 50.2843 41.7157 57 50 57Z" fill="#34D399"/>
<path opacity="0.15" d="M70 57C76.6274 57 82 51.6274 82 45C82 38.3726 76.6274 33 70 33C63.3726 33 58 38.3726 58 45C58 51.6274 63.3726 57 70 57Z" fill="#10B981"/>
<defs>
<filter id="filter0_f_1_117" x="29" y="28.4332" width="62" height="67.5668" filterUnits="userSpaceOnUse" color-interpolation-filters="sRGB">
<feFlood flood-opacity="0" result="BackgroundImageFix"/>
<feBlend mode="normal" in="SourceGraphic" in2="BackgroundImageFix" result="shape"/>
<feGaussianBlur stdDeviation="3" result="effect1_foregroundBlur_1_117"/>
</filter>
<filter id="filter1_f_1_117" x="46.5" y="50" width="27" height="35.5004" filterUnits="userSpaceOnUse" color-interpolation-filters="sRGB">
<feFlood flood-opacity="0" result="BackgroundImageFix"/>
<feBlend mode="normal" in="SourceGraphic" in2="BackgroundImageFix" result="shape"/>
<feGaussianBlur stdDeviation="3" result="effect1_foregroundBlur_1_117"/>
</filter>
<linearGradient id="paint0_linear_1_117" x1="35" y1="35" x2="35" y2="50" gradientUnits="userSpaceOnUse">
<stop stop-color="#6EE7B7"/>
<stop offset="1" stop-color="#34D399"/>
</linearGradient>
<linearGradient id="paint1_linear_1_117" x1="58" y1="48" x2="58" y2="83" gradientUnits="userSpaceOnUse">
<stop stop-color="#10B981"/>
<stop offset="1" stop-color="#059669"/>
</linearGradient>
<linearGradient id="paint2_linear_1_117" x1="62" y1="83" x2="62" y2="88" gradientUnits="userSpaceOnUse">
<stop stop-color="#10B981"/>
<stop offset="1" stop-color="#059669"/>
</linearGradient>
</defs>
</svg>
